<svg id="visual" viewBox="0 0 900 600" width="900" height="600" xmlns="http://www.w3.org/2000/svg" xmlns:xlink="http://www.w3.org/1999/xlink" version="1.1"><rect x="0" y="0" width="900" height="600" fill="#001829"></rect><g fill="#297EA6"><path d="M0 -128.4L28.8 -39.7L122.1 -39.7L46.6 15.2L75.4 103.8L0 49L-75.4 103.8L-46.6 15.2L-122.1 -39.7L-28.8 -39.7Z" transform="translate(242 393)"></path><path d="M0 -48.1L10.8 -14.9L45.8 -14.9L17.5 5.7L28.3 38.9L0 18.4L-28.3 38.9L-17.5 5.7L-45.8 -14.9L-10.8 -14.9Z" transform="translate(658 278)"></path><path d="M0 -56.6L12.7 -17.5L53.9 -17.5L20.6 6.7L33.3 45.8L0 21.6L-33.3 45.8L-20.6 6.7L-53.9 -17.5L-12.7 -17.5Z" transform="translate(524 16)"></path><path d="M0 -117L26.3 -36.2L111.3 -36.2L42.5 13.8L68.8 94.7L0 44.7L-68.8 94.7L-42.5 13.8L-111.3 -36.2L-26.3 -36.2Z" transform="translate(851 493)"></path><path d="M0 -122.7L27.5 -37.9L116.7 -37.9L44.6 14.5L72.1 99.3L0 46.9L-72.1 99.3L-44.6 14.5L-116.7 -37.9L-27.5 -37.9Z" transform="translate(180 18)"></path><path d="M0 -56.6L12.7 -17.5L53.9 -17.5L20.6 6.7L33.3 45.8L0 21.6L-33.3 45.8L-20.6 6.7L-53.9 -17.5L-12.7 -17.5Z" transform="translate(862 33)"></path><path d="M0 -96.3L21.6 -29.7L91.6 -29.7L35 11.4L56.6 77.9L0 36.8L-56.6 77.9L-35 11.4L-91.6 -29.7L-21.6 -29.7Z" transform="translate(485 572)"></path><path d="M0 -71.7L16.1 -22.2L68.2 -22.2L26.1 8.5L42.2 58L0 27.4L-42.2 58L-26.1 8.5L-68.2 -22.2L-16.1 -22.2Z" transform="translate(43 578)"></path></g></svg>